<?xml version="1.0" standalone="no"?>
<!DOCTYPE svg PUBLIC "-//W3C//DTD SVG 20010904//EN"
 "http://www.w3.org/TR/2001/REC-SVG-20010904/DTD/svg10.dtd">
<svg version="1.0" xmlns="http://www.w3.org/2000/svg"
 width="152.000000pt" height="152.000000pt" viewBox="0 0 152.000000 152.000000"
 preserveAspectRatio="xMidYMid meet">
<metadata>
Created by potrace 1.11, written by Peter Selinger 2001-2013
</metadata>
<g transform="translate(0.000000,152.000000) scale(0.100000,-0.100000)"
fill="#000000" stroke="none">
<path d="M603 1505 c-180 -39 -311 -158 -379 -345 -25 -68 -28 -252 -5 -328
54 -176 166 -296 331 -353 53 -18 87 -23 181 -22 l115 0 85 -145 c46 -80 97
-168 113 -196 44 -79 64 -103 83 -102 21 2 78 31 112 57 13 10 27 17 31 14 6
-4 61 47 62 57 0 1 -14 28 -32 58 -18 30 -46 80 -63 110 -16 30 -36 62 -43 71
-8 8 -14 18 -14 22 0 3 -14 30 -31 59 -17 29 -40 68 -50 87 l-18 34 41 46 c55
63 95 145 115 238 10 46 7 204 -5 260 -36 163 -170 309 -332 362 -81 27 -213
34 -297 16z m223 -254 c22 -10 57 -38 77 -61 119 -140 77 -401 -77 -471 -83
-38 -228 -12 -276 47 -55 68 -81 151 -76 239 8 126 57 205 156 252 40 18 149
15 196 -6z"/>
</g>
</svg>
